<svg version="1.1" viewBox="0.0 0.0 170.66666666666666 170.66666666666666" fill="none" stroke="none" stroke-linecap="square" stroke-miterlimit="10" xmlns:xlink="http://www.w3.org/1999/xlink" xmlns="http://www.w3.org/2000/svg"><clipPath id="p.0"><path d="m0 0l170.66667 0l0 170.66667l-170.66667 0l0 -170.66667z" clip-rule="nonzero"/></clipPath><g clip-path="url(#p.0)"><path fill="#000000" fill-opacity="0.0" d="m0 0l170.66667 0l0 170.66667l-170.66667 0z" fill-rule="evenodd"/><path fill="#9900ff" d="m85.33866 -0.0041540684l85.32284 42.792816l0 85.09154l-85.32284 42.79281z" fill-rule="evenodd"/><path stroke="#9900ff" stroke-width="1.0" stroke-linejoin="round" stroke-linecap="butt" d="m85.33866 -0.0041540684l85.32284 42.792816l0 85.09154l-85.32284 42.79281z" fill-rule="evenodd"/><path fill="#9900ff" d="m85.33866 170.6615l-85.32283 -42.792816l0 -85.09154l85.32283 -42.792812z" fill-rule="evenodd"/><path stroke="#9900ff" stroke-width="1.0" stroke-linejoin="round" stroke-linecap="butt" d="m85.33866 170.6615l-85.32283 -42.792816l0 -85.09154l85.32283 -42.792812z" fill-rule="evenodd"/><path fill="#000000" fill-opacity="0.0" d="m18.482939 6.9553804l133.70079 0l0 156.7559l-133.70079 0z" fill-rule="evenodd"/><path fill="#ffffff" d="m84.154816 35.161633l0 89.59375l-20.421875 0l-12.125 -40.734375l0 40.734375l-19.484375 0l0 -89.59375l19.484375 0l13.0625 40.343754l0 -40.343754l19.484375 0zm54.883255 16.15625l-10.453125 73.4375l-29.171875 0l-11.21875 -73.4375l19.96875 0l6.25 53.57813q0.71875 -5.875 2.4375 -28.78125q1.0 -12.781254 2.21875 -24.796879l19.96875 0z" fill-rule="nonzero"/></g></svg>